<?xml version="1.0" encoding="UTF-8" standalone="no" ?>
<!DOCTYPE svg PUBLIC "-//W3C//DTD SVG 1.1//EN" "http://www.w3.org/Graphics/SVG/1.1/DTD/svg11.dtd">
<svg xmlns="http://www.w3.org/2000/svg" xmlns:xlink="http://www.w3.org/1999/xlink" version="1.1" width="640" height="640" viewBox="0 0 640 640" xml:space="preserve">
<desc>Created with Fabric.js 4.6.0</desc>
<defs>
</defs>
<g transform="matrix(1 0 0 1 320 320)" id="pm5eeLYr9_YEaapWfWbu7"  >
<path style="stroke: none; stroke-width: 1; stroke-dasharray: none; stroke-linecap: butt; stroke-dashoffset: 0; stroke-linejoin: miter; stroke-miterlimit: 4; fill: rgb(255,255,255); fill-rule: nonzero; opacity: 1;" vector-effect="non-scaling-stroke"  transform=" translate(-250, -259)" d="M 250 0 C 130.558 0 29.795999999999992 81.291 0 191.43089 L 23.489 191.43089 C 31.913 163.25589 45.575 137.36889000000002 63.143 114.65189000000001 C 82.374 125.49389000000001 104.626 134.54989 129.233 141.52789 C 125.134 157.29789000000002 121.736 173.91889 119.358 191.43089 L 142.31900000000002 191.43089 C 144.603 175.93489 147.722 161.14689 151.424 147.09189 C 178.56400000000002 153.07689000000002 207.913 156.61689 238.738 157.31889 L 238.738 191.43089 L 261.259 191.43089 L 261.259 157.31889 C 292.081 156.61689 321.439 153.09589 348.573 147.11389 C 352.27299999999997 161.16289 355.395 175.94289 357.678 191.43089 L 380.639 191.43089 C 378.261 173.91889 374.863 157.29789 370.764 141.52789 C 395.375 134.54889 417.623 125.49689000000001 436.85400000000004 114.65189000000001 C 454.422 137.36889000000002 468.08500000000004 163.25589000000002 476.50800000000004 191.43089 L 499.997 191.43089 C 470.201 81.29 369.439 0 249.997 0 z M 238.739 23.885 L 238.739 134.79789 C 210.11 134.09689 182.886 130.79789 157.825 125.36289 C 176.30399999999997 69.96288999999999 205.652 31.169999999999987 238.73899999999998 23.88499999999999 z M 261.261 23.885 C 294.348 31.17 323.696 69.96300000000001 342.175 125.36289000000001 C 317.117 130.79889 289.891 134.09689 261.261 134.79789 z M 183.932 32.133 C 164.10899999999998 53.03 147.511 83.227 135.546 119.82088999999999 C 114.01499999999999 113.73489 94.612 106.07189 77.96699999999998 97.14589 C 106.48999999999998 66.80788999999999 142.92499999999998 44.11089 183.932 32.13288999999999 z M 316.068 32.133 C 357.07399999999996 44.111000000000004 393.509 66.807 422.033 97.14600000000002 C 405.391 106.07400000000001 385.985 113.73500000000001 364.454 119.82100000000001 C 352.48900000000003 83.227 335.891 53.030000000000015 316.068 32.133110000000016 z M 2.265 213.95289 L 30.857 304.03778 L 57.095 304.03778 L 80.892 236.69378 L 104.755 304.03778 L 130.421 304.03778 L 159.518 213.95289 L 135.149 213.95289 L 116.762 276.87589 L 95.758 213.95289000000002 L 66.991 213.95289000000002 L 45.085 275.82089 L 27.028000000000002 213.95289000000002 z M 171.373 213.95289 L 199.987 304.03778 L 226.225 304.03778 L 250 236.69378 L 273.863 304.03778 L 299.529 304.03778 L 328.626 213.95289 L 304.25699999999995 213.95289 L 285.86999999999995 276.87589 L 264.86599999999993 213.95289000000002 L 236.09899999999993 213.95289000000002 L 214.19299999999993 275.82089 L 196.13599999999994 213.95289000000002 z M 339.887 213.95289 L 368.61 304.03778 L 394.93600000000004 304.03778 L 418.821 236.69378 L 442.77200000000005 304.03778 L 468.52600000000007 304.03778 L 497.73300000000006 213.95289 L 473.27600000000007 213.95289 L 454.8230000000001 276.87589 L 433.7530000000001 213.95289000000002 L 404.8760000000001 213.95289000000002 L 382.8830000000001 275.82089 L 364.7380000000001 213.95289000000002 z M 0 326.55978 C 29.796 436.70067 130.558 517.99067 250 517.99067 C 369.442 517.99067 470.204 436.69967 500 326.55978000000005 L 476.511 326.55978000000005 C 468.08700000000005 354.73478000000006 454.425 380.62178000000006 436.857 403.33878000000004 C 417.62600000000003 392.49678000000006 395.374 383.44078 370.76700000000005 376.46278000000007 C 374.86600000000004 360.6927800000001 378.26400000000007 344.07178000000005 380.64200000000005 326.55978000000005 L 357.68100000000004 326.55978000000005 C 355.39500000000004 342.05578 352.27900000000005 356.84378000000004 348.576 370.89878000000004 C 321.43600000000004 364.91378000000003 292.08700000000005 361.37378000000007 261.26200000000006 360.67178000000007 L 261.26200000000006 326.55978000000005 L 238.74100000000004 326.55978000000005 L 238.74100000000004 360.67178000000007 C 207.91900000000004 361.37378000000007 178.56100000000004 364.8947800000001 151.42700000000005 370.87678000000005 C 147.72700000000006 356.8277800000001 144.60500000000005 342.04778000000005 142.32200000000006 326.55978000000005 L 119.36100000000006 326.55978000000005 C 121.74100000000006 344.07078000000007 125.13600000000007 360.69378000000006 129.23600000000005 376.46278000000007 C 104.62500000000004 383.44178000000005 82.37700000000004 392.4937800000001 63.14600000000004 403.33878000000004 C 45.578000000000046 380.62178000000006 31.915000000000042 354.73478000000006 23.49200000000004 326.55978000000005 z M 238.739 383.19278 L 238.739 494.10567000000003 C 205.652 486.82067 176.304 448.02767000000006 157.825 392.62778000000003 C 182.88299999999998 387.19178000000005 210.10899999999998 383.89378000000005 238.73899999999998 383.19278 z M 261.261 383.19278 C 289.89000000000004 383.89378000000005 317.11400000000003 387.19278 342.175 392.62778000000003 C 323.695 448.02778 294.347 486.82067000000006 261.261 494.10567000000003 z M 135.568 398.16978 C 147.53500000000003 434.76378 164.11 464.96078 183.93200000000002 485.85767 C 142.92600000000002 473.87967 106.49100000000001 451.18367 77.96700000000001 420.84466999999995 C 94.614 411.91366999999997 114.02900000000001 404.25666999999993 135.568 398.16966999999994 z M 364.454 398.16978 C 385.985 404.25578 405.38800000000003 411.91878 422.033 420.84478 C 393.51 451.18278000000004 357.07500000000005 473.87978 316.068 485.85778000000005 C 335.892 464.96078000000006 352.488 434.76578000000006 364.454 398.16989000000007 z" stroke-linecap="round" />
</g>
</svg>